<svg xmlns="http://www.w3.org/2000/svg" viewBox="0 0 1200 700" preserveAspectRatio="none">
  <g fill="none" stroke="#766846" stroke-width="2" opacity=".15">
    <path d="M18 80c70-42 122-45 184-13s104 42 169 5 116-42 176-7 112 39 175 6 105-36 167-8 113 37 180 0 82-25 113-11"/>
    <path d="M-20 111c75-39 126-42 190-11s103 40 165 4 119-40 179-5 110 38 172 5 109-34 169-7 111 36 178 0 88-23 127-10"/>
    <path d="M53 540c76-42 133-45 197-12s110 42 177 5 123-42 187-7 117 39 183 6 113-35 176-7 112 37 193 0"/>
    <path d="M20 573c82-40 139-43 203-10s108 40 173 3 124-40 188-5 115 38 180 5 116-33 177-6 112 36 193 0"/>
  </g>
  <g fill="#786544" opacity=".15">
    <path d="m891 250 39-68 40 68h-20l-20-34-20 34zM951 250l45-78 45 78h-22l-23-40-23 40zM1017 250l34-59 34 59h-17l-17-30-17 30z"/>
    <path d="m74 426 37-64 38 64h-19l-19-33-19 33zM133 426l43-74 43 74h-21l-22-38-22 38zM198 426l33-57 34 57h-17l-17-29-17 29z"/>
  </g>
  <g fill="none" stroke="#8b7650" stroke-width="1" opacity=".3">
    <path d="M27 26h1146v648H27z"/>
    <path d="M37 36h1126v628H37z" stroke-dasharray="2 8"/>
  </g>
  <g fill="#765f39" opacity=".34" font-family="serif" font-size="22" letter-spacing="7">
    <text x="67" y="75">山 海 图 录</text>
    <text x="1045" y="625" writing-mode="vertical-rl">云山 · 古意</text>
  </g>
</svg>
